<?xml version="1.0" encoding="UTF-8"?><svg xmlns="http://www.w3.org/2000/svg" viewBox="0 0 534.27 219.7"><defs><style>.cls-1{font-family:Nexa, Nexa;font-size:14.52px;}.cls-1,.cls-2{fill:#fff;}.cls-3{letter-spacing:.02em;}.cls-4{letter-spacing:.02em;}.cls-5{isolation:isolate;}.cls-6{letter-spacing:.02em;}.cls-7{fill:#3775b9;font-family:NexaBold, 'Nexa Bold';font-size:38.45px;}.cls-8{fill:#005071;}.cls-8,.cls-9,.cls-10{mix-blend-mode:multiply;}.cls-11{fill:none;stroke:#fff;stroke-linecap:round;stroke-linejoin:round;stroke-width:2px;}.cls-12{letter-spacing:0em;}.cls-13{letter-spacing:-.02em;}.cls-9{fill:#f5d248;}.cls-14{letter-spacing:0em;}.cls-10{fill:#2eb6ab;}</style></defs><g class="cls-5"><g id="Calque_1"><g><path class="cls-2" d="M262.99,142.74l-47.45,56.8c-4.61,5.41-12.72,6.06-18.13,1.45l-51.27-43.68-2.5-10.04-11-1.74c-5.41-4.61-4.42-11.04,.19-16.45l53.78-63.12c4.61-5.41,12.72-6.06,18.13-1.45l49.92,40.57c5.41,4.61,12.93,32.25,8.33,37.66Z"/><rect class="cls-2" x="18.06" y="73.45" width="116.9" height="116.9" rx="12.86" ry="12.86" transform="translate(-58.24 60.52) rotate(-31.97)"/><rect class="cls-2" x="93.98" y=".19" width="110.6" height="110.6" rx="12.86" ry="12.86"/><path class="cls-10" d="M132.65,145.54c-5.41-4.61-4.42-11.04,.19-16.45l53.78-63.12c4.61-5.41,12.72-6.06,18.13-1.45l49.92,40.57c5.41,4.61,10.58,34.6,5.98,40.01l-45.1,54.45c-4.61,5.41-12.72,6.06-18.13,1.45l-51.27-43.68-13.49-11.78Z"/><rect class="cls-9" x="18.06" y="73.45" width="116.9" height="116.9" rx="12.86" ry="12.86" transform="translate(-58.24 60.52) rotate(-31.97)"/><rect class="cls-8" x="93.98" y=".19" width="110.6" height="110.6" rx="12.86" ry="12.86"/><g><path class="cls-2" d="M76.5,122.62c-.43,0-.82-.28-.96-.69-.14-.41,0-.87,.34-1.13,.32-.25,.77-.28,1.13-.07,.36,.21,.56,.63,.49,1.04-.08,.48-.51,.85-1,.85h0Z"/><path class="cls-2" d="M88.12,142.27h-.65v-1.06c0-2.18-1.77-3.95-3.95-3.95h-6.01v-11.06c0-.56-.45-1.02-1.02-1.02s-1.02,.45-1.02,1.02v11.06h-6.01c-2.18,0-3.95,1.77-3.95,3.95v1.06h-.65c-2.18,0-3.95,1.77-3.95,3.95v2.07c0,.56,.45,1.02,1.02,1.02h29.1c.56,0,1.02-.45,1.02-1.02v-2.07c0-2.18-1.77-3.95-3.95-3.95h0Zm-20.55-1.06c0-1.06,.86-1.91,1.91-1.91h14.04c1.06,0,1.91,.86,1.91,1.91v1.06h-17.87v-1.06h0Zm22.47,6.06h-27.07v-1.06c0-1.06,.86-1.91,1.91-1.91h23.24c1.06,0,1.91,.86,1.91,1.91v1.06Z"/><path class="cls-2" d="M98.23,125.05h0s0-.02,0-.03c0,0,0,0,0,0,0,0,0-.01,0-.02,0,0,0,0,0-.01,0,0,0,0,0-.01-.01-.13-.05-.26-.11-.37l-6.59-13.31c1.5-.2,2.97-.68,4.32-1.45,.49-.28,.66-.9,.38-1.39-.28-.49-.9-.66-1.39-.38-2.98,1.71-6.69,1.72-9.68,.02l-6.4-3.62c1.02-.71,1.69-1.9,1.69-3.23,0-2.17-1.77-3.94-3.94-3.94s-3.94,1.77-3.94,3.94c0,1.34,.67,2.52,1.69,3.23l-6.4,3.62c-2.99,1.69-6.7,1.68-9.68-.02-.49-.28-1.11-.11-1.39,.38-.28,.49-.11,1.11,.38,1.39,1.35,.77,2.82,1.26,4.32,1.45l-6.59,13.31c-.06,.11-.1,.24-.11,.37,0,0,0,0,0,.01,0,0,0,0,0,.01,0,0,0,.01,0,.02,0,0,0,0,0,0,0,0,0,.02,0,.02h0s0,.02,0,.03c0,4.56,3.71,8.27,8.26,8.27s8.26-3.71,8.26-8.27c0,0,0-.02,0-.03h0s0-.02,0-.03c0,0,0,0,0,0,0,0,0-.01,0-.02,0,0,0,0,0-.01,0,0,0,0,0-.01-.01-.13-.05-.26-.11-.37l-6.59-13.31c1.48-.2,2.92-.67,4.25-1.42l6.63-3.75v10.91c0,.56,.45,1.02,1.02,1.02s1.02-.45,1.02-1.02v-10.91l6.63,3.75c1.33,.75,2.78,1.23,4.25,1.42l-6.59,13.31c-.06,.11-.1,.24-.11,.37,0,0,0,0,0,.01,0,0,0,0,0,.01,0,0,0,.01,0,.02,0,0,0,0,0,0,0,0,0,.02,0,.02h0s0,.02,0,.03c0,4.56,3.71,8.27,8.26,8.27s8.26-3.71,8.26-8.27c0,0,0-.02,0-.03h0Zm-35.18,6.27c-3.09,0-5.67-2.27-6.15-5.23h12.3c-.49,2.96-3.06,5.23-6.15,5.23Zm-5.61-7.26l5.61-11.33,5.61,11.33h-11.23Zm19.07-24.71c1.05,0,1.9,.86,1.9,1.91s-.85,1.91-1.9,1.91-1.9-.86-1.9-1.91,.85-1.91,1.9-1.91h0Zm13.46,13.38l5.61,11.33h-11.23l5.61-11.33Zm0,18.59c-3.09,0-5.67-2.27-6.15-5.23h12.3c-.49,2.96-3.06,5.23-6.15,5.23Z"/></g><g><path class="cls-2" d="M171.31,68.34c.51-1.82,.76-3.71,.76-5.61,0-9.58-6.5-17.67-15.32-20.09v-3.03c0-1.4-1.14-2.53-2.53-2.53h-1.87v-8.55c0-.61-.49-1.1-1.1-1.1s-1.1,.49-1.1,1.1v8.55h-1.87c-1.4,0-2.53,1.14-2.53,2.53v3.03c-8.82,2.42-15.32,10.51-15.32,20.09,0,11.48,9.34,20.82,20.82,20.82,5.65,0,10.94-2.23,14.89-6.27,.42-.43,.42-1.13-.02-1.55-.43-.42-1.13-.42-1.55,.02-2.12,2.17-4.68,3.76-7.47,4.68,.76-.9,1.47-1.99,2.1-3.26,.54-1.07,1-2.24,1.4-3.48h2.8c.61,0,1.1-.49,1.1-1.1s-.49-1.1-1.1-1.1h-2.19c.57-2.39,.91-4.98,.98-7.67h7.65c-.08,1.33-.29,2.65-.65,3.93-.16,.58,.18,1.19,.76,1.35,.58,.16,1.19-.18,1.35-.76h0Zm-21.16,12.87c-2.4-.67-4.54-3.5-5.94-7.52h5.94v7.52Zm-6.6-9.71c-.6-2.32-.97-4.93-1.05-7.67h7.66v7.67h-6.6Zm-10.9-7.67h7.65c.07,2.69,.4,5.29,.98,7.67h-6.47c-1.24-2.31-2-4.91-2.16-7.67Zm2.16-9.86h6.47c-.57,2.39-.91,4.98-.98,7.67h-7.65c.16-2.76,.93-5.36,2.16-7.67Zm7.68,7.67c.08-2.74,.45-5.35,1.05-7.67h6.6v7.67h-7.66Zm9.85-17.38c2.4,.67,4.54,3.5,5.94,7.52h-5.94v-7.52Zm-2.19,0v7.52h-5.94c1.4-4.02,3.54-6.85,5.94-7.52Zm2.19,9.71h6.6c.6,2.32,.97,4.93,1.05,7.67h-7.66v-7.67Zm8.87,0h6.47c1.24,2.31,2,4.91,2.16,7.67h-7.65c-.07-2.69-.4-5.29-.98-7.67Zm5.09-2.19h-5.7c-.4-1.24-.87-2.41-1.4-3.48-.63-1.26-1.33-2.34-2.09-3.25,3.72,1.24,6.92,3.62,9.19,6.72Zm-18.37-9.86v-2.29c0-.19,.15-.34,.34-.34h5.94c.19,0,.34,.15,.34,.34v2.29h-6.62Zm-2.56,3.14c-.76,.9-1.46,1.99-2.09,3.25-.54,1.07-1,2.24-1.4,3.48h-5.7c2.27-3.11,5.47-5.49,9.19-6.72h0Zm-9.19,28.64h5.7c.4,1.24,.87,2.41,1.4,3.48,.63,1.26,1.33,2.34,2.09,3.25-3.72-1.24-6.92-3.62-9.19-6.72Zm16.15,7.52v-7.52h5.94c-1.4,4.02-3.54,6.85-5.94,7.52Zm6.6-9.71h-6.6v-7.67h7.66c-.08,2.74-.45,5.35-1.05,7.67Z"/><path class="cls-2" d="M169.89,33.85c.61,0,1.1-.49,1.1-1.1v-1.46c0-.61-.49-1.1-1.1-1.1s-1.1,.49-1.1,1.1v1.46c0,.61,.49,1.1,1.1,1.1Z"/><path class="cls-2" d="M169.89,41.15c.61,0,1.1-.49,1.1-1.1v-1.46c0-.61-.49-1.1-1.1-1.1s-1.1,.49-1.1,1.1v1.46c0,.61,.49,1.1,1.1,1.1Z"/><path class="cls-2" d="M165.51,36.77h1.46c.61,0,1.1-.49,1.1-1.1s-.49-1.1-1.1-1.1h-1.46c-.61,0-1.1,.49-1.1,1.1s.49,1.1,1.1,1.1h0Z"/><path class="cls-2" d="M172.81,36.77h1.46c.61,0,1.1-.49,1.1-1.1s-.49-1.1-1.1-1.1h-1.46c-.61,0-1.1,.49-1.1,1.1s.49,1.1,1.1,1.1Z"/><path class="cls-2" d="M128.67,40c.61,0,1.1-.49,1.1-1.1v-1.46c0-.61-.49-1.1-1.1-1.1s-1.1,.49-1.1,1.1v1.46c0,.61,.49,1.1,1.1,1.1Z"/><path class="cls-2" d="M128.67,47.31c.61,0,1.1-.49,1.1-1.1v-1.46c0-.61-.49-1.1-1.1-1.1s-1.1,.49-1.1,1.1v1.46c0,.61,.49,1.1,1.1,1.1h0Z"/><path class="cls-2" d="M124.29,42.92h1.46c.61,0,1.1-.49,1.1-1.1s-.49-1.1-1.1-1.1h-1.46c-.61,0-1.1,.49-1.1,1.1s.49,1.1,1.1,1.1Z"/><path class="cls-2" d="M131.59,42.92h1.46c.61,0,1.1-.49,1.1-1.1s-.49-1.1-1.1-1.1h-1.46c-.61,0-1.1,.49-1.1,1.1s.49,1.1,1.1,1.1Z"/><path class="cls-2" d="M168.34,71.49c-.29,0-.57,.12-.78,.32-.2,.2-.32,.49-.32,.77s.12,.57,.32,.77c.2,.2,.49,.32,.78,.32s.57-.12,.77-.32c.2-.2,.32-.49,.32-.77s-.12-.57-.32-.77c-.2-.2-.49-.32-.77-.32Z"/></g><g><path class="cls-2" d="M227.4,142.17l-9.17-25.13c1.78-1.63,2.89-3.97,2.89-6.56,0-4.91-3.99-8.91-8.91-8.91s-8.91,3.99-8.91,8.91c0,2.6,1.12,4.93,2.89,6.56l-5.11,14-5.11-14c1.78-1.63,2.89-3.97,2.89-6.56,0-4.91-3.99-8.91-8.91-8.91s-8.91,3.99-8.91,8.91c0,2.6,1.12,4.93,2.89,6.56l-3.23,8.86h-7.07c-3.22,0-5.85,2.62-5.85,5.85v11.23c0,3.22,2.62,5.85,5.85,5.85h33.29c.65,0,1.17-.52,1.17-1.17s-.52-1.17-1.17-1.17h-2.25c.8-1.29,.97-2.88,.45-4.31l-2.81-7.72,5.85-16.04c1.21,.62,2.58,.97,4.02,.97s2.82-.35,4.02-.97l8.95,24.56c.3,.81,.18,1.68-.31,2.39-.5,.71-1.28,1.11-2.14,1.11h-5.26c-.65,0-1.17,.52-1.17,1.17s.52,1.17,1.17,1.17h5.26c1.61,0,3.13-.79,4.06-2.11,.93-1.32,1.15-3.02,.6-4.54h0Zm-43.98-31.69c0-3.62,2.95-6.57,6.57-6.57s6.57,2.95,6.57,6.57-2.95,6.57-6.57,6.57-6.57-2.95-6.57-6.57Zm-13.26,32.5v-11.23c0-1.93,1.57-3.51,3.51-3.51h11.23c1.93,0,3.51,1.57,3.51,3.51v11.23c0,1.93-1.57,3.51-3.51,3.51h-11.23c-1.93,0-3.51-1.57-3.51-3.51Zm32.49,2.39c-.5,.71-1.28,1.11-2.14,1.11h-10.94c.74-.98,1.17-2.19,1.17-3.51v-11.23c0-3.22-2.62-5.85-5.85-5.85h-1.67l2.73-7.48c1.21,.62,2.58,.97,4.02,.97s2.82-.35,4.02-.97l8.95,24.56c.3,.81,.18,1.68-.31,2.39h0Zm3-34.89c0-3.62,2.95-6.57,6.57-6.57s6.57,2.95,6.57,6.57-2.95,6.57-6.57,6.57-6.57-2.95-6.57-6.57Z"/><path class="cls-2" d="M183.14,132.33c-.31,0-.61,.13-.83,.34-.22,.22-.34,.52-.34,.83s.13,.61,.34,.83c.22,.22,.52,.34,.83,.34s.61-.13,.83-.34c.22-.22,.34-.52,.34-.83s-.13-.61-.34-.83-.52-.34-.83-.34Z"/><path class="cls-2" d="M183.14,140.05c-.31,0-.61,.13-.83,.34-.22,.22-.34,.52-.34,.83s.13,.61,.34,.83c.22,.22,.52,.34,.83,.34s.61-.13,.83-.34c.22-.22,.34-.52,.34-.83s-.13-.61-.34-.83-.52-.34-.83-.34Z"/><path class="cls-2" d="M175.42,140.05c-.31,0-.61,.13-.83,.34-.22,.22-.34,.52-.34,.83s.13,.61,.34,.83c.22,.22,.52,.34,.83,.34s.61-.13,.83-.34c.22-.22,.34-.52,.34-.83s-.13-.61-.34-.83-.52-.34-.83-.34Z"/><path class="cls-2" d="M175.42,132.33c-.31,0-.61,.13-.83,.34-.22,.22-.34,.52-.34,.83s.13,.61,.34,.83c.22,.22,.52,.34,.83,.34s.61-.13,.83-.34c.22-.22,.34-.52,.34-.83s-.13-.61-.34-.83-.52-.34-.83-.34Z"/><path class="cls-2" d="M179.28,136.19c-.31,0-.61,.13-.83,.34-.22,.22-.34,.52-.34,.83s.13,.61,.34,.83c.22,.22,.52,.34,.83,.34s.61-.13,.83-.34c.22-.22,.34-.52,.34-.83s-.13-.61-.34-.83-.52-.34-.83-.34Z"/><path class="cls-2" d="M212.22,146.48c-.31,0-.61,.13-.83,.34-.22,.22-.34,.52-.34,.83s.13,.61,.34,.83c.22,.22,.52,.34,.83,.34s.61-.13,.83-.34c.22-.22,.34-.52,.34-.83s-.13-.61-.34-.83c-.22-.22-.52-.34-.83-.34Z"/></g></g><g><path class="cls-2" d="M293.68,39.38c-.2-.01-.41,0-.62,0-32.94,2.82-38.3,123.41-7.54,123.67,25.88,.25,57.2-77.5,65.75-101.4,.67-1.86,2.71-2.83,4.57-2.19h0c1.88,.65,2.88,2.71,2.23,4.59-9.98,28.63-38.95,105.8-73.59,106.06-56.49,0-61.72-140.69,7.58-138.07,16.47,.78,19.61,13.6,19.87,27.72,.26,2.88-7.06,3.14-7.06,0-.26-8.27-2.31-19.87-11.2-20.38Z"/><path class="cls-2" d="M392.73,17.36c-1.83-6.28-7.06-9.15-13.34-9.41h-.26c-13.6-.26-24.06,7.58-23.54,22.23,.75,25.89,34.13,31.73,52.28,55.6,1.22,1.6,3.4,1.75,5.06,.61,11.58-7.9,28.49-14.82,34.78-31.01,.69-1.77,2.66-2.68,4.45-2.04h0c1.83,.66,2.78,2.69,2.1,4.52-6.79,18.37-23.84,26.46-38.5,35.5-1.33,.82-1.62,2.65-1.01,4.09,3.25,7.64,5.12,16.84,4.65,28.17-1.05,26.94-17.26,53.09-48.9,54.92-16.21,.26-28.77-11.77-29.03-27.98-.52-23.54,23.8-36.09,41.32-46.29l2.71-1.65c1.79-1.09,2.25-3.52,.94-5.15-16.97-21.24-45.94-33.14-44.44-64.33,1.05-20.4,17-34.26,37.4-34.26,9.41,.26,17.52,4.97,20.4,14.64,1.83,6.8,.26,15.17-4.97,20.14-1.83,1.83-6.8-2.35-4.18-5.75,2.88-3.4,3.4-8.63,2.09-12.55Zm6.01,117.94c.22-9.06-1.43-16.63-4.31-23.18-.84-1.91-3.12-2.7-4.94-1.68l-3.3,1.85c-14.38,8.37-37.13,20.14-37.66,39.23-.26,12.55,9.15,22.23,21.7,21.97,17.52-1.05,27.72-18.83,28.5-38.18Z"/><path class="cls-2" d="M531.86,76.64c1.87,.65,2.87,2.69,2.22,4.57-9.1,26.23-24.99,70.09-54.79,70.09-59.1,0-58.32-113.75,2.62-114.02,12.03,0,20.66,6.54,20.66,19.09-.25,20.25-20.32,31.4-38.84,31.48-1.88,0-3.44,1.42-3.61,3.29-2.31,25.98,3.41,53.34,19.7,53.09,24.63-.5,39.56-42.18,47.48-65.37,.64-1.88,2.69-2.87,4.57-2.22h0Zm-36.36-20.27c0-7.85-5.23-11.77-11.25-11.51-10.39,.24-18.1,14.1-21.89,31.46-.5,2.3,1.35,4.48,3.71,4.33,14.09-.91,29.19-9.2,29.43-24.29Z"/></g><text class="cls-7" transform="translate(439.99 207.86)"><tspan class="cls-13" x="0" y="0">L</tspan><tspan class="cls-6" x="21.68" y="0">yra</tspan></text><text class="cls-1" transform="translate(241.13 207)"><tspan class="cls-14" x="0" y="0">C</tspan><tspan class="cls-4" x="10.41" y="0">ultu</tspan><tspan class="cls-12" x="38.19" y="0">r</tspan><tspan class="cls-3" x="44.45" y="0">el, Social &amp; </tspan><tspan class="cls-14" x="127.14" y="0">C</tspan><tspan class="cls-3" x="137.55" y="0">onseil</tspan></text><line class="cls-11" x1="429.5" y1="175.98" x2="429.5" y2="207.07"/></g></g></svg>